<svg xmlns="http://www.w3.org/2000/svg" viewBox="0 0 300 300" role="img" aria-label="avatar">
  <rect width="300" height="300" fill="#58AF7B"/>
  <g transform="translate(35 30)">
    <path d="M70 118c-7 24-8 52 3 75 12 25 36 43 67 43s55-18 67-43c11-23 10-51 3-75-11-38-38-67-70-67s-59 29-70 67z" fill="#fff"/>
    <path d="M75 120c2-41 26-81 67-84 37-2 65 25 73 63 8 40-3 66-3 66-8-29-19-52-41-68-10 20-27 35-54 42-16 4-30 5-42 1z" fill="#050505"/>
    <path d="M58 149c-9 0-16 9-14 22 2 13 12 22 22 20" fill="#fff" stroke="#050505" stroke-width="6" stroke-linecap="round"/>
    <path d="M222 149c9 0 16 9 14 22-2 13-12 22-22 20" fill="#fff" stroke="#050505" stroke-width="6" stroke-linecap="round"/>
    <path d="M85 93c-14 25-7 61-5 83 2 20 5 41 15 56-28-13-48-38-52-78-5-45 12-79 42-61z" fill="#050505"/>
    <path d="M208 92c21 16 25 53 20 88-5 34-21 52-43 62 13-23 17-54 18-81 0-25-6-48-19-68 8-7 16-8 24-1z" fill="#050505"/>
    <path d="M93 128c18-16 45-22 71-21 37 1 60 21 60 21-38-11-70-10-96 0-22 8-35 0-35 0z" fill="#050505"/>
    <path d="M92 154c12-9 27-9 40 0" stroke="#050505" stroke-width="8" stroke-linecap="round"/>
    <path d="M166 154c12-9 27-9 40 0" stroke="#050505" stroke-width="8" stroke-linecap="round"/>
    <circle cx="113" cy="169" r="10" fill="#050505"/>
    <circle cx="187" cy="169" r="10" fill="#050505"/>
    <path d="M150 170c4 14 6 24-8 32" stroke="#050505" stroke-width="5" stroke-linecap="round"/>
    <path d="M120 215c18 15 43 15 62 0" stroke="#050505" stroke-width="6" stroke-linecap="round"/>
    <path d="M80 112c27-41 99-45 130-5" stroke="#050505" stroke-width="10" stroke-linecap="round"/>
  </g>
</svg>
